<?xml version="1.0" encoding="UTF-8"?>
<svg class="site-logo__icon" width="600" height="100" version="1.1" viewBox="0 0 300 50.000002" xmlns="http://www.w3.org/2000/svg" xmlns:cc="http://creativecommons.org/ns#" xmlns:dc="http://purl.org/dc/elements/1.1/" xmlns:rdf="http://www.w3.org/1999/02/22-rdf-syntax-ns#">
 <metadata>
  <rdf:RDF>
   <cc:Work rdf:about="">
    <dc:format>image/svg+xml</dc:format>
    <dc:type rdf:resource="http://purl.org/dc/dcmitype/StillImage"/>
    <dc:title>Logo</dc:title>
   </cc:Work>
  </rdf:RDF>
 </metadata>
 <title>Logo</title>
 <g transform="matrix(1.1285 0 0 1.1285 0 3.548)" fill="#fff">
  <path d="m14.9 17.06a2.14 2.14 0 1 1 2.29 2 2.14 2.14 0 0 1 -2.29 -2z"/>
  <path d="m40 17.06a2.14 2.14 0 1 0 -2.29 2 2.14 2.14 0 0 0 2.29 -2z"/>
  <path d="m47.06 20.41c-0.25-0.93-1.53-1.07-2.66-0.78a22.2 22.2 0 0 1 -6.75 0.89c-2-0.14-3.91-1.79-5.12-2.92 1.2-1.38 2.74-2.86 3.09-3.27a1.57 1.57 0 0 0 0.17 -2c-0.43-0.43-1.19-0.17-2 0.34s-3.66 3.43-6.42 3.43-5.75-2.92-6.52-3.43a2 2 0 0 0 -2.3 0c-0.43 0.43 0 1 0.51 1.62 0.36 0.42 2 2 3.17 3.36-1.21 1.12-3.1 2.69-5 2.83a22.19 22.19 0 0 1 -6.75 -0.89c-1.13-0.29-2.41-0.15-2.66 0.78a1.72 1.72 0 0 0 1 1.65c0.66 0.43 4.07 1.09 5 2.56s1.11 12.82 2 13.2a3.36 3.36 0 0 0 2.41 0c0.87-0.44 2.33-12.82 3.06-14.41a19.35 19.35 0 0 1 2.35 -3.3c0.79 3.7 1.65 17.48 2.48 17.76a4.44 4.44 0 0 0 2.38 0c0.82-0.35 1.72-14.5 2.52-17.93a20.35 20.35 0 0 1 2.49 3.46c0.74 1.59 2.2 14 3.06 14.41a3.37 3.37 0 0 0 2.41 0c0.89-0.38 1-11.73 2-13.2s4.37-2.13 5-2.56a1.72 1.72 0 0 0 1 -1.65z"/>
  <path d="m25.31 12.52a2.14 2.14 0 1 1 2.14 2.14 2.14 2.14 0 0 1 -2.14 -2.14z"/>
  <path d="m47.49 12.67c1 1.65-1.14 2.27-2.8 1.89-1.39-0.32-15.06-7.62-17.11-7.81s-14.33 7.37-15.69 8.1a5.53 5.53 0 0 1 -5.59 0c-0.6-0.32-5.3-2.79-6.3-3.48 1-1 15.23-9.49 16.89-10.31 1.9-1 3-1.46 5.13-0.67 1.45 0.54 25 11.6 25.47 12.28z"/>
  <path d="m5.39 23.27a28.24 28.24 0 0 1 4 1.67c2.39 1.23 2.52 2.46 2.79 4.45s0.54 6.08 0.58 7.58a53.62 53.62 0 0 1 -5.86 -4.52c-0.72-0.63-1.54-1.08-1.53-2.05 0-0.37-0.17-6.22 0-7.14z"/>
  <g aria-label="Clarksdale Area">
   <path d="m58.049 19.492q-1.404 0-2.5827-0.50267-1.1613-0.50267-1.9933-1.3867-0.832-0.90133-1.3-2.132-0.45067-1.2307-0.45067-2.6693 0-1.4387 0.45067-2.6693 0.45067-1.2307 1.2653-2.132 0.832-0.90133 1.9933-1.404 1.1787-0.52 2.6173-0.52 1.0747 0 1.976 0.26 0.90133 0.24267 1.56 0.74533 0.884 0.64133 1.3693 1.56 0.50267 0.91867 0.624 2.0107h-2.9467q-0.13867-0.91867-0.832-1.508-0.676-0.60667-1.768-0.60667-0.832 0-1.456 0.32933-0.60667 0.312-1.0227 0.884-0.39867 0.572-0.60667 1.352t-0.208 1.6987q0 0.91867 0.22533 1.6987 0.24267 0.78 0.65867 1.352 0.43333 0.55467 1.04 0.884 0.624 0.312 1.3867 0.312 1.196 0 1.8893-0.676 0.69333-0.676 0.79733-1.6813h2.964q-0.06933 0.97067-0.48533 1.8373-0.416 0.84933-1.0747 1.508-0.728 0.728-1.7333 1.092t-2.3573 0.364z"/>
   <path d="m65.07 6.3015h2.7387v12.896h-2.7387z"/>
   <path d="m75.55 19.198q-0.104-0.156-0.19067-0.43333-0.08667-0.29467-0.12133-0.69333h-0.03467q-0.45067 0.64133-1.092 1.0053-0.624 0.364-1.6987 0.364-0.676 0-1.2653-0.19067-0.572-0.17333-1.0053-0.52-0.416-0.34667-0.65867-0.86667-0.22533-0.53733-0.22533-1.2133 0-0.76267 0.27733-1.2653 0.29467-0.50267 0.78-0.81467t1.144-0.468q0.65867-0.17333 1.4213-0.26 1.2307-0.17333 1.768-0.416 0.55467-0.24267 0.55467-0.76267 0-0.50267-0.32933-0.79733-0.32933-0.312-1.04-0.312-0.78 0-1.1787 0.32933-0.38133 0.32933-0.43333 0.884h-2.5133q0.01733-0.58933 0.27733-1.144t0.76267-0.97067q0.50267-0.43333 1.2653-0.676 0.76267-0.26 1.7853-0.26 0.884 0 1.5253 0.13867 0.64133 0.12133 1.1267 0.416 0.728 0.416 1.0573 1.1267 0.34667 0.69333 0.34667 1.6293v4.732q0 1.0573 0.34667 1.2827v0.156zm-2.288-1.5427q0.91867 0 1.456-0.50267 0.55467-0.50267 0.55467-1.2653v-1.196q-0.29467 0.19067-0.728 0.312-0.416 0.104-0.86667 0.208-0.90133 0.19067-1.3347 0.468-0.43333 0.27733-0.43333 0.884t0.39867 0.84933q0.39867 0.24267 0.95333 0.24267z"/>
   <path d="m82.311 11.623h0.052q0.45067-0.97067 1.0747-1.3867 0.624-0.416 1.4907-0.416 0.416 0 0.572 0.069333v2.3747h-0.06933q-0.29467-0.052-0.572-0.052-1.1093-0.01733-1.7853 0.676-0.65867 0.676-0.65867 2.028v4.2813h-2.7213v-9.2213h2.6173z"/>
   <path d="m90.409 15.176-0.91867 0.95333v3.068h-2.6867v-12.896h2.6867v4.0213q0 1.0227-0.03467 1.768-0.01733 0.74533-0.052 1.196l3.0333-3.3107h3.1547l-3.2933 3.4147 3.6747 5.8067h-3.1547z"/>
   <path d="m100.52 19.492q-1.0053 0-1.8027-0.22533-0.79733-0.22533-1.3693-0.64133-0.55467-0.416-0.884-0.988-0.312-0.58933-0.364-1.2827h2.5653q0.12133 0.65867 0.58933 1.0053 0.48533 0.34667 1.2827 0.34667 0.728 0 1.1267-0.27733 0.39866-0.27733 0.39866-0.78 0-0.312-0.19066-0.50267-0.19067-0.19067-0.52-0.312-0.32934-0.12133-0.76267-0.19067-0.416-0.08667-0.90133-0.17333-0.624-0.12133-1.2133-0.27733t-1.0573-0.468-0.76267-0.81467q-0.27733-0.50267-0.27733-1.3173 0-0.71067 0.29467-1.248 0.312-0.53733 0.832-0.90133t1.2307-0.53733q0.71067-0.19067 1.5253-0.19067 1.924 0 2.912 0.76267 0.988 0.74533 1.1787 1.9587h-2.5307q-0.26-0.988-1.56-0.988-0.624 0-1.0053 0.24267-0.364 0.24267-0.364 0.69333 0 0.26 0.17333 0.43333 0.17333 0.156 0.48533 0.26t0.728 0.17333 0.884 0.156q0.624 0.104 1.248 0.27733 0.624 0.156 1.1267 0.48533 0.50266 0.32933 0.81466 0.884 0.32934 0.53733 0.32934 1.404 0 0.74533-0.312 1.3173t-0.86667 0.95333-1.3173 0.572q-0.76267 0.19067-1.664 0.19067z"/>
   <path d="m109.59 19.492q-0.90133 0-1.6293-0.32933-0.728-0.34667-1.248-0.97067-0.52-0.64133-0.79733-1.5427-0.27734-0.91867-0.27734-2.0627 0-1.0573 0.27734-1.9413 0.29466-0.90133 0.81466-1.5427 0.52-0.65867 1.248-1.0227 0.74534-0.364 1.6467-0.364 0.95333 0 1.612 0.416 0.65867 0.39867 1.1267 1.1267h0.0347q-0.0347-0.43333-0.052-0.988t-0.0173-1.144v-2.8253h2.7213v12.896h-2.6173v-1.352h-0.0347q-0.39866 0.84933-1.144 1.248-0.728 0.39867-1.664 0.39867zm0.728-2.184q0.988 0 1.5427-0.74533 0.55467-0.76267 0.55467-1.976 0-0.60667-0.13867-1.1267-0.12133-0.52-0.38133-0.884-0.26-0.38133-0.65867-0.58933-0.38133-0.208-0.90133-0.208-0.97067 0-1.456 0.78-0.468 0.76267-0.468 2.0107t0.468 1.9933q0.48533 0.74533 1.4387 0.74533z"/>
   <path d="m122.74 19.198q-0.104-0.156-0.19067-0.43333-0.0867-0.29467-0.12133-0.69333h-0.0347q-0.45067 0.64133-1.092 1.0053-0.624 0.364-1.6987 0.364-0.676 0-1.2653-0.19067-0.572-0.17333-1.0053-0.52-0.416-0.34667-0.65867-0.86667-0.22533-0.53733-0.22533-1.2133 0-0.76267 0.27733-1.2653 0.29467-0.50267 0.78-0.81467t1.144-0.468q0.65867-0.17333 1.4213-0.26 1.2307-0.17333 1.768-0.416 0.55467-0.24267 0.55467-0.76267 0-0.50267-0.32933-0.79733-0.32934-0.312-1.04-0.312-0.78 0-1.1787 0.32933-0.38133 0.32933-0.43333 0.884h-2.5133q0.0173-0.58933 0.27734-1.144 0.26-0.55467 0.76266-0.97067 0.50267-0.43333 1.2653-0.676 0.76266-0.26 1.7853-0.26 0.884 0 1.5253 0.13867 0.64134 0.12133 1.1267 0.416 0.728 0.416 1.0573 1.1267 0.34667 0.69333 0.34667 1.6293v4.732q0 1.0573 0.34667 1.2827v0.156zm-2.288-1.5427q0.91866 0 1.456-0.50267 0.55466-0.50267 0.55466-1.2653v-1.196q-0.29466 0.19067-0.728 0.312-0.416 0.104-0.86666 0.208-0.90134 0.19067-1.3347 0.468t-0.43333 0.884 0.39866 0.84933q0.39867 0.24267 0.95334 0.24267z"/>
   <path d="m126.92 6.3015h2.7387v12.896h-2.7387z"/>
   <path d="m135.93 19.475q-1.1267 0-2.028-0.364-0.90134-0.38133-1.5427-1.04-0.624-0.65867-0.97067-1.5427-0.32933-0.884-0.32933-1.924t0.34667-1.924q0.34666-0.90133 0.97066-1.56t1.4907-1.0227q0.86667-0.38133 1.924-0.38133 0.988 0 1.768 0.312 0.79733 0.312 1.404 0.86667 0.78 0.76267 1.144 1.8893 0.364 1.1267 0.34667 2.496h-6.7253q0.13867 1.04 0.69334 1.6293 0.55466 0.58933 1.5427 0.58933 0.64134 0 1.04-0.22533 0.416-0.24267 0.64134-0.676h2.6347q-0.17333 0.60667-0.55466 1.144-0.364 0.52-0.91867 0.91867-0.53733 0.38133-1.2653 0.58933-0.728 0.22533-1.612 0.22533zm-0.13867-7.8347q-0.936 0-1.4213 0.55467-0.48534 0.55467-0.624 1.508h3.9347q-0.0693-0.97067-0.572-1.508-0.50266-0.55467-1.3173-0.55467z"/>
   <path d="m149.9 6.3015h3.068l4.6627 12.896h-3.12l-0.81467-2.4613h-4.68l-0.79733 2.4613h-2.964zm-0.19066 8.32h3.3107l-0.78-2.4093q-0.208-0.65867-0.364-1.2653-0.156-0.624-0.26-1.1093-0.12133-0.572-0.208-1.0573h-0.0347q-0.13867 0.64133-0.27734 1.248-0.13866 0.52-0.29466 1.1267-0.13867 0.58933-0.29467 1.0573z"/>
   <path d="m161.36 11.623h0.052q0.45066-0.97067 1.0747-1.3867 0.624-0.416 1.4907-0.416 0.416 0 0.572 0.069333v2.3747h-0.0693q-0.29467-0.052-0.572-0.052-1.1093-0.01733-1.7853 0.676-0.65866 0.676-0.65866 2.028v4.2813h-2.7213v-9.2213h2.6173z"/>
   <path d="m170.09 19.475q-1.1267 0-2.028-0.364-0.90134-0.38133-1.5427-1.04-0.624-0.65867-0.97067-1.5427-0.32933-0.884-0.32933-1.924t0.34667-1.924q0.34666-0.90133 0.97066-1.56t1.4907-1.0227q0.86667-0.38133 1.924-0.38133 0.988 0 1.768 0.312 0.79733 0.312 1.404 0.86667 0.78 0.76267 1.144 1.8893 0.364 1.1267 0.34667 2.496h-6.7253q0.13867 1.04 0.69334 1.6293 0.55466 0.58933 1.5427 0.58933 0.64134 0 1.04-0.22533 0.416-0.24267 0.64134-0.676h2.6347q-0.17333 0.60667-0.55466 1.144-0.364 0.52-0.91867 0.91867-0.53733 0.38133-1.2653 0.58933-0.728 0.22533-1.612 0.22533zm-0.13867-7.8347q-0.936 0-1.4213 0.55467-0.48534 0.55467-0.624 1.508h3.9347q-0.0693-0.97067-0.572-1.508-0.50266-0.55467-1.3173-0.55467z"/>
   <path d="m182.06 19.198q-0.104-0.156-0.19067-0.43333-0.0867-0.29467-0.12133-0.69333h-0.0347q-0.45067 0.64133-1.092 1.0053-0.624 0.364-1.6987 0.364-0.676 0-1.2653-0.19067-0.572-0.17333-1.0053-0.52-0.416-0.34667-0.65867-0.86667-0.22533-0.53733-0.22533-1.2133 0-0.76267 0.27733-1.2653 0.29467-0.50267 0.78-0.81467t1.144-0.468q0.65867-0.17333 1.4213-0.26 1.2307-0.17333 1.768-0.416 0.55467-0.24267 0.55467-0.76267 0-0.50267-0.32933-0.79733-0.32934-0.312-1.04-0.312-0.78 0-1.1787 0.32933-0.38133 0.32933-0.43333 0.884h-2.5133q0.0173-0.58933 0.27734-1.144 0.26-0.55467 0.76266-0.97067 0.50267-0.43333 1.2653-0.676 0.76266-0.26 1.7853-0.26 0.884 0 1.5253 0.13867 0.64134 0.12133 1.1267 0.416 0.728 0.416 1.0573 1.1267 0.34667 0.69333 0.34667 1.6293v4.732q0 1.0573 0.34667 1.2827v0.156zm-2.288-1.5427q0.91866 0 1.456-0.50267 0.55466-0.50267 0.55466-1.2653v-1.196q-0.29466 0.19067-0.728 0.312-0.416 0.104-0.86666 0.208-0.90134 0.19067-1.3347 0.468t-0.43333 0.884 0.39866 0.84933q0.39867 0.24267 0.95334 0.24267z"/>
  </g>
  <g aria-label="Habitat for Humanity">
   <path d="m51.722 21.494h3.6267v6.1227h5.9947v-6.1227h3.6267v15.872h-3.6267v-6.72h-5.9947v6.72h-3.6267z"/>
   <path d="m74.679 37.366q-0.128-0.192-0.23467-0.53333-0.10667-0.36267-0.14933-0.85333h-0.04267q-0.55467 0.78933-1.344 1.2373-0.768 0.448-2.0907 0.448-0.832 0-1.5573-0.23467-0.704-0.21333-1.2373-0.64-0.512-0.42667-0.81067-1.0667-0.27733-0.66133-0.27733-1.4933 0-0.93867 0.34133-1.5573 0.36267-0.61867 0.96-1.0027 0.59733-0.384 1.408-0.576 0.81067-0.21333 1.7493-0.32 1.5147-0.21333 2.176-0.512 0.68267-0.29867 0.68267-0.93867 0-0.61867-0.40533-0.98133-0.40533-0.384-1.28-0.384-0.96 0-1.4507 0.40533-0.46933 0.40533-0.53333 1.088h-3.0933q0.02133-0.72533 0.34133-1.408t0.93867-1.1947q0.61867-0.53333 1.5573-0.832 0.93867-0.32 2.1973-0.32 1.088 0 1.8773 0.17067 0.78933 0.14933 1.3867 0.512 0.896 0.512 1.3013 1.3867 0.42667 0.85333 0.42667 2.0053v5.824q0 1.3013 0.42667 1.5787v0.192zm-2.816-1.8987q1.1307 0 1.792-0.61867 0.68267-0.61867 0.68267-1.5573v-1.472q-0.36267 0.23467-0.896 0.384-0.512 0.128-1.0667 0.256-1.1093 0.23467-1.6427 0.576-0.53333 0.34133-0.53333 1.088t0.49067 1.0453q0.49067 0.29867 1.1733 0.29867z"/>
   <path d="m86.499 37.729q-1.152 0-2.0693-0.49067-0.896-0.49067-1.3867-1.536h-0.04267v1.664h-3.2213v-15.872h3.3493v3.4773q0 0.72533-0.04267 1.4293-0.02133 0.68267-0.064 1.1947h0.064q0.576-0.87467 1.3867-1.3867 0.81067-0.512 2.0053-0.512 1.1093 0 2.0053 0.448t1.536 1.2587q0.64 0.78933 0.98133 1.8987 0.36267 1.088 0.36267 2.3893 0 1.408-0.34133 2.5387-0.34133 1.1093-0.98133 1.8987-0.64 0.768-1.536 1.1947-0.896 0.40533-2.0053 0.40533zm-0.896-2.688q1.1733 0 1.7493-0.91733 0.59733-0.91733 0.59733-2.4533t-0.59733-2.4747q-0.576-0.96-1.7707-0.96-0.66133 0-1.152 0.27733-0.46933 0.256-0.78933 0.72533-0.32 0.448-0.46933 1.088t-0.14933 1.3653q0 1.4933 0.68267 2.432 0.68267 0.91733 1.8987 0.91733z"/>
   <path d="m93.008 21.494h3.392v2.9227h-3.392zm0.02133 4.5227h3.3493v11.349h-3.3493z"/>
   <path d="m97.701 26.017h1.7067v-3.6267h3.2853v3.6267h2.2187v2.1333h-2.2187v5.632q0 0.64 0.32 0.87467 0.34133 0.21333 0.93867 0.21333 0.17066 0 0.384 0 0.21333-0.02133 0.384-0.04267h0.17066v2.496q-0.27733 0.04267-0.768 0.10667-0.49066 0.064-1.1733 0.064-0.78933 0-1.4507-0.128-0.64-0.14933-1.1093-0.49067-0.46933-0.36267-0.72533-0.91733-0.256-0.576-0.256-1.4507v-6.3573h-1.7067z"/>
   <path d="m114.14 37.366q-0.128-0.192-0.23467-0.53333-0.10666-0.36267-0.14933-0.85333h-0.0427q-0.55466 0.78933-1.344 1.2373-0.768 0.448-2.0907 0.448-0.832 0-1.5573-0.23467-0.704-0.21333-1.2373-0.64-0.512-0.42667-0.81067-1.0667-0.27733-0.66133-0.27733-1.4933 0-0.93867 0.34133-1.5573 0.36267-0.61867 0.96-1.0027 0.59734-0.384 1.408-0.576 0.81067-0.21333 1.7493-0.32 1.5147-0.21333 2.176-0.512 0.68266-0.29867 0.68266-0.93867 0-0.61867-0.40533-0.98133-0.40533-0.384-1.28-0.384-0.96 0-1.4507 0.40533-0.46933 0.40533-0.53333 1.088h-3.0933q0.0213-0.72533 0.34133-1.408 0.32-0.68267 0.93867-1.1947 0.61866-0.53333 1.5573-0.832 0.93867-0.32 2.1973-0.32 1.088 0 1.8773 0.17067 0.78933 0.14933 1.3867 0.512 0.896 0.512 1.3013 1.3867 0.42666 0.85333 0.42666 2.0053v5.824q0 1.3013 0.42667 1.5787v0.192zm-2.816-1.8987q1.1307 0 1.792-0.61867 0.68267-0.61867 0.68267-1.5573v-1.472q-0.36267 0.23467-0.896 0.384-0.512 0.128-1.0667 0.256-1.1093 0.23467-1.6427 0.576-0.53333 0.34133-0.53333 1.088t0.49067 1.0453q0.49066 0.29867 1.1733 0.29867z"/>
   <path d="m118.45 26.017h1.7067v-3.6267h3.2853v3.6267h2.2187v2.1333h-2.2187v5.632q0 0.64 0.32 0.87467 0.34133 0.21333 0.93867 0.21333 0.17066 0 0.384 0 0.21333-0.02133 0.384-0.04267h0.17066v2.496q-0.27733 0.04267-0.768 0.10667-0.49066 0.064-1.1733 0.064-0.78933 0-1.4507-0.128-0.64-0.14933-1.1093-0.49067-0.46933-0.36267-0.72533-0.91733-0.256-0.576-0.256-1.4507v-6.3573h-1.7067z"/>
   <path d="m131.85 26.017h1.7067v-0.96q0-1.792 0.96-2.6667 0.55467-0.49067 1.408-0.704 0.87467-0.21333 1.9627-0.192 0.34133 0 0.68266 0.02133 0.34134 0.02133 0.704 0.064v2.3893q-0.64-0.02133-1.088 0t-0.74666 0.17067q-0.27734 0.128-0.40534 0.40533t-0.128 0.74667v0.72533h2.368v2.176h-2.368v9.1733h-3.3493v-9.1733h-1.7067z"/>
   <path d="m146.18 37.729q-1.3653 0-2.4747-0.448-1.1093-0.46933-1.8987-1.28-0.78933-0.81067-1.216-1.8987-0.42666-1.1093-0.42666-2.3893t0.42666-2.368q0.42667-1.1093 1.216-1.92 0.78934-0.81067 1.8987-1.2587 1.1093-0.46933 2.4747-0.46933 1.344 0 2.4533 0.46933 1.1093 0.448 1.8773 1.2587 0.78934 0.81067 1.216 1.92 0.42667 1.088 0.42667 2.368t-0.42667 2.3893q-0.42666 1.088-1.216 1.8987-0.768 0.81067-1.8773 1.28-1.1093 0.448-2.4533 0.448zm-0.0213-2.432q1.2587 0 1.92-0.98133 0.68267-1.0027 0.68267-2.6027 0-1.6213-0.68267-2.624-0.66133-1.0027-1.92-1.0027-1.28 0-1.9413 1.0027t-0.66133 2.624q0 1.6 0.66133 2.6027 0.66133 0.98133 1.9413 0.98133z"/>
   <path d="m157.04 28.043h0.064q0.55467-1.1947 1.3227-1.7067t1.8347-0.512q0.512 0 0.704 0.08533v2.9227h-0.0853q-0.36266-0.064-0.704-0.064-1.3653-0.02133-2.1973 0.832-0.81067 0.832-0.81067 2.496v5.2693h-3.3493v-11.349h3.2213z"/>
   <path d="m167.93 21.494h3.6267v6.1227h5.9947v-6.1227h3.6267v15.872h-3.6267v-6.72h-5.9947v6.72h-3.6267z"/>
   <path d="m190.99 37.366v-1.6213h-0.064q-0.61867 1.0027-1.4293 1.472-0.81066 0.46933-1.984 0.46933-1.9413 0-2.9653-1.1307-1.024-1.152-1.024-3.0293v-7.5093h3.3493v6.8693q0 0.96 0.448 1.472 0.46934 0.512 1.3653 0.512 1.024 0 1.6-0.68267t0.576-1.7493v-6.4213h3.3067v11.349z"/>
   <path d="m196.4 26.017h3.2213v1.7707h0.064q0.55467-1.024 1.3653-1.5573 0.832-0.53333 2.048-0.53333 2.24 0 3.1147 2.1547h0.0427q0.704-1.152 1.6-1.6427 0.91733-0.512 2.0053-0.512 1.8987 0 2.8587 1.152 0.96 1.1307 0.96 3.0293v7.488h-3.328v-6.9333q0-0.93867-0.448-1.4507-0.42667-0.53333-1.2373-0.53333-0.896 0-1.4293 0.68267-0.512 0.68267-0.512 1.7707v6.464h-3.3493v-6.9333q0-0.93867-0.42667-1.4507-0.40533-0.53333-1.2373-0.53333-0.896 0-1.4293 0.68267-0.53333 0.68267-0.53333 1.7707v6.464h-3.3493z"/>
   <path d="m223.1 37.366q-0.128-0.192-0.23466-0.53333-0.10667-0.36267-0.14934-0.85333h-0.0427q-0.55467 0.78933-1.344 1.2373-0.768 0.448-2.0907 0.448-0.832 0-1.5573-0.23467-0.704-0.21333-1.2373-0.64-0.512-0.42667-0.81066-1.0667-0.27734-0.66133-0.27734-1.4933 0-0.93867 0.34134-1.5573 0.36266-0.61867 0.96-1.0027 0.59733-0.384 1.408-0.576 0.81066-0.21333 1.7493-0.32 1.5147-0.21333 2.176-0.512 0.68267-0.29867 0.68267-0.93867 0-0.61867-0.40534-0.98133-0.40533-0.384-1.28-0.384-0.96 0-1.4507 0.40533-0.46934 0.40533-0.53334 1.088h-3.0933q0.0213-0.72533 0.34133-1.408 0.32-0.68267 0.93867-1.1947 0.61867-0.53333 1.5573-0.832 0.93867-0.32 2.1973-0.32 1.088 0 1.8773 0.17067 0.78933 0.14933 1.3867 0.512 0.896 0.512 1.3013 1.3867 0.42667 0.85333 0.42667 2.0053v5.824q0 1.3013 0.42666 1.5787v0.192zm-2.816-1.8987q1.1307 0 1.792-0.61867 0.68267-0.61867 0.68267-1.5573v-1.472q-0.36267 0.23467-0.896 0.384-0.512 0.128-1.0667 0.256-1.1093 0.23467-1.6427 0.576-0.53334 0.34133-0.53334 1.088t0.49067 1.0453q0.49067 0.29867 1.1733 0.29867z"/>
   <path d="m231.44 27.745h0.064q0.53334-1.024 1.408-1.536 0.896-0.512 2.0907-0.512 1.8773 0 2.9013 1.152 1.0453 1.1307 1.0453 3.0507v7.4667h-3.328v-6.8267q0-0.93867-0.49067-1.4933-0.46933-0.576-1.408-0.576-0.98133 0-1.5787 0.704-0.59733 0.704-0.59733 1.792v6.4h-3.3493v-11.349h3.2427z"/>
   <path d="m241.05 21.494h3.392v2.9227h-3.392zm0.0213 4.5227h3.3493v11.349h-3.3493z"/>
   <path d="m245.74 26.017h1.7067v-3.6267h3.2853v3.6267h2.2187v2.1333h-2.2187v5.632q0 0.64 0.32 0.87467 0.34134 0.21333 0.93867 0.21333 0.17067 0 0.384 0 0.21333-0.02133 0.384-0.04267h0.17067v2.496q-0.27734 0.04267-0.768 0.10667-0.49067 0.064-1.1733 0.064-0.78933 0-1.4507-0.128-0.64-0.14933-1.1093-0.49067-0.46933-0.36267-0.72533-0.91733-0.256-0.576-0.256-1.4507v-6.3573h-1.7067z"/>
   <path d="m257.5 41.163q-0.0427 0-0.384 0-0.34133 0-0.74666-0.02133-0.40534 0-0.74667-0.02133-0.34133 0-0.36267 0v-2.624h0.17067q0.0213 0 0.17067 0 0.17066 0.02133 0.36266 0.02133t0.34134 0q0.17066 0 0.21333 0 1.5147 0 1.6213-1.152 0-0.29867-0.14933-0.896-0.14933-0.61867-0.448-1.3867l-3.52-9.0667h3.52l1.4507 4.352q0.192 0.576 0.36266 1.28 0.17067 0.68267 0.29867 1.28 0.14933 0.704 0.27733 1.3867h0.0427q0.14933-0.704 0.32-1.408 0.14933-0.59733 0.32-1.28t0.36267-1.2587l1.3867-4.352h3.328l-4.0533 11.627q-0.34133 0.98133-0.72533 1.6427-0.384 0.68267-0.87467 1.088-0.49067 0.42667-1.1093 0.59733-0.61867 0.192-1.4293 0.192z"/>
  </g>
 </g>
</svg>
