<?xml version="1.0" encoding="UTF-8"?>
<svg class="site-logo__icon" width="100" height="100" version="1.1" viewBox="0 0 50 50" xmlns="http://www.w3.org/2000/svg" xmlns:cc="http://creativecommons.org/ns#" xmlns:dc="http://purl.org/dc/elements/1.1/" xmlns:rdf="http://www.w3.org/1999/02/22-rdf-syntax-ns#">
 <metadata>
  <rdf:RDF>
   <cc:Work rdf:about="">
    <dc:format>image/svg+xml</dc:format>
    <dc:type rdf:resource="http://purl.org/dc/dcmitype/StillImage"/>
    <dc:title>Logo</dc:title>
   </cc:Work>
  </rdf:RDF>
 </metadata>
 <title>Logo</title>
 <g transform="matrix(.92797 0 0 .92108 0 2.2295)" fill-opacity=".96209">
  <path d="m16.815 22.8a2.415 2.415 0 1 1 2.5843 2.257 2.415 2.415 0 0 1 -2.5843 -2.257z"/>
  <path d="m45.14 22.8a2.415 2.415 0 1 0 -2.5843 2.257 2.415 2.415 0 0 0 2.5843 -2.257z"/>
  <path d="m53.107 26.581c-0.28212-1.0495-1.7266-1.2075-3.0018-0.88023a25.053 25.053 0 0 1 -7.6174 1.0044c-2.257-0.15799-4.4124-2.02-5.7779-3.2952 1.3542-1.5573 3.0921-3.2275 3.4871-3.6902a1.7717 1.7717 0 0 0 0.19184 -2.257c-0.48526-0.48526-1.3429-0.19184-2.257 0.38369s-4.1303 3.8708-7.245 3.8708-6.4889-3.2952-7.3578-3.8708a2.257 2.257 0 0 0 -2.5956 0c-0.48526 0.48526 0 1.1285 0.57554 1.8282 0.40626 0.47397 2.257 2.257 3.5773 3.7918-1.3655 1.2639-3.4984 3.0357-5.6425 3.1937a25.041 25.041 0 0 1 -7.6174 -1.0044c-1.2752-0.32726-2.7197-0.16928-3.0018 0.88023a1.941 1.941 0 0 0 1.1285 1.862c0.74481 0.48526 4.593 1.2301 5.6425 2.889s1.2526 14.467 2.257 14.896a3.7918 3.7918 0 0 0 2.7197 0c0.9818-0.49654 2.6294-14.467 3.4532-16.262a21.836 21.836 0 0 1 2.652 -3.724c0.89152 4.1754 1.862 19.726 2.7987 20.042a5.0105 5.0105 0 0 0 2.6858 0c0.92537-0.39498 1.941-16.363 2.8438-20.234a22.965 22.965 0 0 1 2.81 3.9046c0.83509 1.7943 2.4827 15.799 3.4532 16.262a3.803 3.803 0 0 0 2.7197 0c1.0044-0.42883 1.1285-13.237 2.257-14.896s4.9315-2.4037 5.6425-2.889a1.941 1.941 0 0 0 1.1285 -1.862z"/>
  <path d="m28.562 17.677a2.415 2.415 0 1 1 2.415 2.415 2.415 2.415 0 0 1 -2.415 -2.415z"/>
  <path d="m53.592 17.846c1.1285 1.862-1.2865 2.5617-3.1598 2.1329-1.5686-0.36112-16.995-8.5992-19.309-8.8136s-16.171 8.317-17.706 9.1408a6.2406 6.2406 0 0 1 -6.3083 0c-0.6771-0.36112-5.981-3.1485-7.1096-3.9272 1.1285-1.1285 17.187-10.709 19.06-11.635 2.1442-1.1285 3.3855-1.6476 5.7892-0.7561 1.6363 0.60939 28.212 13.091 28.743 13.858z"/>
  <path d="m6.0826 29.808a31.869 31.869 0 0 1 4.514 1.8846c2.6971 1.3881 2.8438 2.7761 3.1485 5.0218s0.60939 6.8613 0.65453 8.554a60.51 60.51 0 0 1 -6.613 -5.1008c-0.81252-0.71096-1.7379-1.2188-1.7266-2.3134 0-0.41754-0.19184-7.0193 0-8.0575z"/>
 </g>
</svg>
