<?xml version="1.0" encoding="UTF-8" standalone="no"?>
<svg
   xmlns:dc="http://purl.org/dc/elements/1.1/"
   xmlns:cc="http://creativecommons.org/ns#"
   xmlns:rdf="http://www.w3.org/1999/02/22-rdf-syntax-ns#"
   xmlns:svg="http://www.w3.org/2000/svg"
   xmlns="http://www.w3.org/2000/svg"
   xmlns:sodipodi="http://sodipodi.sourceforge.net/DTD/sodipodi-0.dtd"
   xmlns:inkscape="http://www.inkscape.org/namespaces/inkscape"
   class="site-logo__icon"
   version="1.1"
   viewBox="0 0 300 50.000002"
   id="svg96"
   sodipodi:docname="logo_opt.svg"
   width="300"
   height="50"
   inkscape:version="0.92.2 5c3e80d, 2017-08-06">
  <defs
     id="defs100" />
  <sodipodi:namedview
     pagecolor="#ffffff"
     bordercolor="#666666"
     borderopacity="1"
     objecttolerance="10000"
     gridtolerance="10"
     guidetolerance="10"
     inkscape:pageopacity="0"
     inkscape:pageshadow="2"
     inkscape:window-width="1920"
     inkscape:window-height="1035"
     id="namedview98"
     showgrid="false"
     inkscape:pagecheckerboard="true"
     fit-margin-top="2.7755576e-17"
     fit-margin-left="0"
     fit-margin-right="0"
     fit-margin-bottom="0"
     units="px"
     inkscape:zoom="3.625"
     inkscape:cx="122.30422"
     inkscape:cy="13.360749"
     inkscape:window-x="0"
     inkscape:window-y="1"
     inkscape:window-maximized="1"
     inkscape:current-layer="svg96" />
  <metadata
     id="metadata10">
    <rdf:RDF>
      <cc:Work
         rdf:about="">
        <dc:format>image/svg+xml</dc:format>
        <dc:type
           rdf:resource="http://purl.org/dc/dcmitype/StillImage" />
        <dc:title>Logo</dc:title>
      </cc:Work>
    </rdf:RDF>
  </metadata>
  <title
     id="title12">Logo</title>
  <g
     id="g94"
     style="fill:#ffffff;fill-opacity:1"
     transform="matrix(1.1284803,0,0,1.1284803,0,3.5480256)">
    <path
       d="m 14.9,17.06 a 2.14,2.14 0 1 1 2.29,2 2.14,2.14 0 0 1 -2.29,-2 z"
       id="path14"
       inkscape:connector-curvature="0"
       style="fill:#ffffff;fill-opacity:1" />
    <path
       d="m 40,17.06 a 2.14,2.14 0 1 0 -2.29,2 2.14,2.14 0 0 0 2.29,-2 z"
       id="path16"
       inkscape:connector-curvature="0"
       style="fill:#ffffff;fill-opacity:1" />
    <path
       d="M 47.06,20.41 C 46.81,19.48 45.53,19.34 44.4,19.63 a 22.2,22.2 0 0 1 -6.75,0.89 c -2,-0.14 -3.91,-1.79 -5.12,-2.92 1.2,-1.38 2.74,-2.86 3.09,-3.27 a 1.57,1.57 0 0 0 0.17,-2 c -0.43,-0.43 -1.19,-0.17 -2,0.34 -0.81,0.51 -3.66,3.43 -6.42,3.43 -2.76,0 -5.75,-2.92 -6.52,-3.43 a 2,2 0 0 0 -2.3,0 c -0.43,0.43 0,1 0.51,1.62 0.36,0.42 2,2 3.17,3.36 -1.21,1.12 -3.1,2.69 -5,2.83 A 22.19,22.19 0 0 1 10.48,19.59 C 9.35,19.3 8.07,19.44 7.82,20.37 a 1.72,1.72 0 0 0 1,1.65 c 0.66,0.43 4.07,1.09 5,2.56 0.93,1.47 1.11,12.82 2,13.2 a 3.36,3.36 0 0 0 2.41,0 c 0.87,-0.44 2.33,-12.82 3.06,-14.41 a 19.35,19.35 0 0 1 2.35,-3.3 c 0.79,3.7 1.65,17.48 2.48,17.76 a 4.44,4.44 0 0 0 2.38,0 c 0.82,-0.35 1.72,-14.5 2.52,-17.93 a 20.35,20.35 0 0 1 2.49,3.46 c 0.74,1.59 2.2,14 3.06,14.41 a 3.37,3.37 0 0 0 2.41,0 c 0.89,-0.38 1,-11.73 2,-13.2 1,-1.47 4.37,-2.13 5,-2.56 a 1.72,1.72 0 0 0 1,-1.65 z"
       id="path18"
       inkscape:connector-curvature="0"
       style="fill:#ffffff;fill-opacity:1" />
    <path
       d="m 25.31,12.52 a 2.14,2.14 0 1 1 2.14,2.14 2.14,2.14 0 0 1 -2.14,-2.14 z"
       id="path20"
       inkscape:connector-curvature="0"
       style="fill:#ffffff;fill-opacity:1" />
    <path
       d="m 47.49,12.67 c 1,1.65 -1.14,2.27 -2.8,1.89 C 43.3,14.24 29.63,6.94 27.58,6.75 25.53,6.56 13.25,14.12 11.89,14.85 a 5.53,5.53 0 0 1 -5.59,0 C 5.7,14.53 1,12.06 0,11.37 c 1,-1 15.23,-9.49 16.89,-10.31 1.9,-1 3,-1.46 5.13,-0.67 1.45,0.54 25,11.6 25.47,12.28 z"
       id="path22"
       inkscape:connector-curvature="0"
       style="fill:#ffffff;fill-opacity:1" />
    <path
       d="m 5.39,23.27 a 28.24,28.24 0 0 1 4,1.67 c 2.39,1.23 2.52,2.46 2.79,4.45 0.27,1.99 0.54,6.08 0.58,7.58 A 53.62,53.62 0 0 1 6.9,32.45 C 6.18,31.82 5.36,31.37 5.37,30.4 c 0,-0.37 -0.17,-6.22 0,-7.14 z"
       id="path24"
       inkscape:connector-curvature="0"
       style="fill:#ffffff;fill-opacity:1" />
    <g
       aria-label="Clarksdale Area"
       id="g54"
       style="fill:#ffffff;fill-opacity:1">
      <path
         d="m 58.049,19.492 q -1.404,0 -2.5827,-0.50267 -1.1613,-0.50267 -1.9933,-1.3867 -0.832,-0.90133 -1.3,-2.132 -0.45067,-1.2307 -0.45067,-2.6693 0,-1.4387 0.45067,-2.6693 0.45067,-1.2307 1.2653,-2.132 0.832,-0.90133 1.9933,-1.404 1.1787,-0.52 2.6173,-0.52 1.0747,0 1.976,0.26 0.90133,0.24267 1.56,0.74533 0.884,0.64133 1.3693,1.56 0.50267,0.91867 0.624,2.0107 h -2.9467 q -0.13867,-0.91867 -0.832,-1.508 -0.676,-0.60667 -1.768,-0.60667 -0.832,0 -1.456,0.32933 -0.60667,0.312 -1.0227,0.884 -0.39867,0.572 -0.60667,1.352 -0.208,0.78 -0.208,1.6987 0,0.91867 0.22533,1.6987 0.24267,0.78 0.65867,1.352 0.43333,0.55467 1.04,0.884 0.624,0.312 1.3867,0.312 1.196,0 1.8893,-0.676 0.69333,-0.676 0.79733,-1.6813 h 2.964 q -0.06933,0.97067 -0.48533,1.8373 -0.416,0.84933 -1.0747,1.508 -0.728,0.728 -1.7333,1.092 -1.0053,0.364 -2.3573,0.364 z"
         id="path26"
         inkscape:connector-curvature="0"
         style="fill:#ffffff;fill-opacity:1" />
      <path
         d="m 65.07,6.3015 h 2.7387 v 12.896 H 65.07 Z"
         id="path28"
         inkscape:connector-curvature="0"
         style="fill:#ffffff;fill-opacity:1" />
      <path
         d="M 75.55,19.198 Q 75.446,19.042 75.35933,18.76467 75.27266,18.47 75.238,18.07134 h -0.03467 q -0.45067,0.64133 -1.092,1.0053 -0.624,0.364 -1.6987,0.364 -0.676,0 -1.2653,-0.19067 -0.572,-0.17333 -1.0053,-0.52 -0.416,-0.34667 -0.65867,-0.86667 -0.22533,-0.53733 -0.22533,-1.2133 0,-0.76267 0.27733,-1.2653 0.29467,-0.50267 0.78,-0.81467 0.48533,-0.312 1.144,-0.468 0.65867,-0.17333 1.4213,-0.26 1.2307,-0.17333 1.768,-0.416 0.55467,-0.24267 0.55467,-0.76267 0,-0.50267 -0.32933,-0.79733 -0.32933,-0.312 -1.04,-0.312 -0.78,0 -1.1787,0.32933 -0.38133,0.32933 -0.43333,0.884 h -2.5133 q 0.01733,-0.58933 0.27733,-1.144 0.26,-0.55467 0.76267,-0.97067 0.50267,-0.43333 1.2653,-0.676 0.76267,-0.26 1.7853,-0.26 0.884,0 1.5253,0.13867 0.64133,0.12133 1.1267,0.416 0.728,0.416 1.0573,1.1267 0.34667,0.69333 0.34667,1.6293 v 4.732 q 0,1.0573 0.34667,1.2827 v 0.156 z m -2.288,-1.5427 q 0.91867,0 1.456,-0.50267 0.55467,-0.50267 0.55467,-1.2653 v -1.196 q -0.29467,0.19067 -0.728,0.312 -0.416,0.104 -0.86667,0.208 -0.90133,0.19067 -1.3347,0.468 -0.43333,0.27733 -0.43333,0.884 0,0.60667 0.39867,0.84933 0.39867,0.24267 0.95333,0.24267 z"
         id="path30"
         inkscape:connector-curvature="0"
         style="fill:#ffffff;fill-opacity:1" />
      <path
         d="m 82.311,11.623 h 0.052 q 0.45067,-0.97067 1.0747,-1.3867 0.624,-0.416 1.4907,-0.416 0.416,0 0.572,0.069333 v 2.3747 h -0.06933 q -0.29467,-0.052 -0.572,-0.052 -1.1093,-0.01733 -1.7853,0.676 -0.65867,0.676 -0.65867,2.028 v 4.2813 h -2.7213 v -9.2213 h 2.6173 z"
         id="path32"
         inkscape:connector-curvature="0"
         style="fill:#ffffff;fill-opacity:1" />
      <path
         d="m 90.409,15.176 -0.91867,0.95333 v 3.068 h -2.6867 v -12.896 h 2.6867 v 4.0213 q 0,1.0227 -0.03467,1.768 -0.01733,0.74533 -0.052,1.196 l 3.0333,-3.3107 h 3.1547 l -3.2933,3.4147 3.6747,5.8067 h -3.1547 z"
         id="path34"
         inkscape:connector-curvature="0"
         style="fill:#ffffff;fill-opacity:1" />
      <path
         d="m 100.52,19.492 q -1.0053,0 -1.8027,-0.22533 -0.79733,-0.22533 -1.3693,-0.64133 -0.55467,-0.416 -0.884,-0.988 -0.312,-0.58933 -0.364,-1.2827 h 2.5653 q 0.12133,0.65867 0.58933,1.0053 0.48533,0.34667 1.2827,0.34667 0.728,0 1.1267,-0.27733 0.39866,-0.27733 0.39866,-0.78 0,-0.312 -0.19066,-0.50267 -0.19067,-0.19067 -0.52,-0.312 -0.32934,-0.12133 -0.76267,-0.19067 -0.416,-0.08667 -0.90133,-0.17333 -0.624,-0.12133 -1.2133,-0.27733 -0.5893,-0.156 -1.0573,-0.468 -0.468,-0.312 -0.76267,-0.81467 -0.27733,-0.50267 -0.27733,-1.3173 0,-0.71067 0.29467,-1.248 0.312,-0.53733 0.832,-0.90133 0.52,-0.364 1.2307,-0.53733 0.71067,-0.19067 1.5253,-0.19067 1.924,0 2.912,0.76267 0.988,0.74533 1.1787,1.9587 h -2.5307 q -0.26,-0.988 -1.56,-0.988 -0.624,0 -1.0053,0.24267 -0.364,0.24267 -0.364,0.69333 0,0.26 0.17333,0.43333 0.17333,0.156 0.48533,0.26 0.312,0.104 0.728,0.17333 0.416,0.06933 0.884,0.156 0.624,0.104 1.248,0.27733 0.624,0.156 1.1267,0.48533 0.50266,0.32933 0.81466,0.884 0.32934,0.53733 0.32934,1.404 0,0.74533 -0.312,1.3173 -0.312,0.57197 -0.86667,0.95333 -0.55467,0.38136 -1.3173,0.572 -0.76267,0.19067 -1.664,0.19067 z"
         id="path36"
         inkscape:connector-curvature="0"
         style="fill:#ffffff;fill-opacity:1" />
      <path
         d="m 109.59,19.492 q -0.90133,0 -1.6293,-0.32933 -0.728,-0.34667 -1.248,-0.97067 -0.52,-0.64133 -0.79733,-1.5427 -0.27734,-0.91867 -0.27734,-2.0627 0,-1.0573 0.27734,-1.9413 0.29466,-0.90133 0.81466,-1.5427 0.52,-0.65867 1.248,-1.0227 0.74534,-0.364 1.6467,-0.364 0.95333,0 1.612,0.416 0.65867,0.39867 1.1267,1.1267 h 0.0347 q -0.0347,-0.43333 -0.052,-0.988 -0.0173,-0.55467 -0.0173,-1.144 V 6.3013 h 2.7213 v 12.896 h -2.6173 v -1.352 h -0.0347 q -0.39866,0.84933 -1.144,1.248 -0.728,0.39867 -1.664,0.39867 z m 0.728,-2.184 q 0.988,0 1.5427,-0.74533 0.55467,-0.76267 0.55467,-1.976 0,-0.60667 -0.13867,-1.1267 -0.12133,-0.52 -0.38133,-0.884 -0.26,-0.38133 -0.65867,-0.58933 -0.38133,-0.208 -0.90133,-0.208 -0.97067,0 -1.456,0.78 -0.468,0.76267 -0.468,2.0107 0,1.24803 0.468,1.9933 0.48533,0.74533 1.4387,0.74533 z"
         id="path38"
         inkscape:connector-curvature="0"
         style="fill:#ffffff;fill-opacity:1" />
      <path
         d="m 122.74,19.198 q -0.104,-0.156 -0.19067,-0.43333 -0.0867,-0.29467 -0.12133,-0.69333 h -0.0347 q -0.45067,0.64133 -1.092,1.0053 -0.624,0.364 -1.6987,0.364 -0.676,0 -1.2653,-0.19067 -0.572,-0.17333 -1.0053,-0.52 -0.416,-0.34667 -0.65867,-0.86667 -0.22533,-0.53733 -0.22533,-1.2133 0,-0.76267 0.27733,-1.2653 0.29467,-0.50267 0.78,-0.81467 0.48533,-0.312 1.144,-0.468 0.65867,-0.17333 1.4213,-0.26 1.2307,-0.17333 1.768,-0.416 0.55467,-0.24267 0.55467,-0.76267 0,-0.50267 -0.32933,-0.79733 -0.32934,-0.312 -1.04,-0.312 -0.78,0 -1.1787,0.32933 -0.38133,0.32933 -0.43333,0.884 h -2.5133 q 0.0173,-0.58933 0.27734,-1.144 0.26,-0.55467 0.76266,-0.97067 0.50267,-0.43333 1.2653,-0.676 0.76266,-0.26 1.7853,-0.26 0.884,0 1.5253,0.13867 0.64134,0.12133 1.1267,0.416 0.728,0.416 1.0573,1.1267 0.34667,0.69333 0.34667,1.6293 v 4.732 q 0,1.0573 0.34667,1.2827 v 0.156 z m -2.288,-1.5427 q 0.91866,0 1.456,-0.50267 0.55466,-0.50267 0.55466,-1.2653 v -1.196 q -0.29466,0.19067 -0.728,0.312 -0.416,0.104 -0.86666,0.208 -0.90134,0.19067 -1.3347,0.468 -0.43336,0.27733 -0.43333,0.884 3e-5,0.60667 0.39866,0.84933 0.39867,0.24267 0.95334,0.24267 z"
         id="path40"
         inkscape:connector-curvature="0"
         style="fill:#ffffff;fill-opacity:1" />
      <path
         d="m 126.92,6.3015 h 2.7387 v 12.896 H 126.92 Z"
         id="path42"
         inkscape:connector-curvature="0"
         style="fill:#ffffff;fill-opacity:1" />
      <path
         d="m 135.93,19.475 q -1.1267,0 -2.028,-0.364 -0.90134,-0.38133 -1.5427,-1.04 -0.624,-0.65867 -0.97067,-1.5427 -0.32933,-0.884 -0.32933,-1.924 0,-1.04 0.34667,-1.924 0.34666,-0.90133 0.97066,-1.56 0.624,-0.65867 1.4907,-1.0227 0.86667,-0.38133 1.924,-0.38133 0.988,0 1.768,0.312 0.79733,0.312 1.404,0.86667 0.78,0.76267 1.144,1.8893 0.364,1.1267 0.34667,2.496 h -6.7253 q 0.13867,1.04 0.69334,1.6293 0.55466,0.58933 1.5427,0.58933 0.64134,0 1.04,-0.22533 0.416,-0.24267 0.64134,-0.676 h 2.6347 q -0.17333,0.60667 -0.55466,1.144 -0.364,0.52 -0.91867,0.91867 -0.53733,0.38133 -1.2653,0.58933 -0.728,0.22533 -1.612,0.22533 z m -0.13867,-7.8347 q -0.936,0 -1.4213,0.55467 -0.48534,0.55467 -0.624,1.508 h 3.9347 q -0.0693,-0.97067 -0.572,-1.508 -0.50266,-0.55467 -1.3173,-0.55467 z"
         id="path44"
         inkscape:connector-curvature="0"
         style="fill:#ffffff;fill-opacity:1" />
      <path
         d="m 149.9,6.3015 h 3.068 l 4.6627,12.896 h -3.12 l -0.81467,-2.4613 h -4.68 l -0.79733,2.4613 h -2.964 z m -0.19066,8.32 h 3.3107 l -0.78,-2.4093 q -0.208,-0.65867 -0.364,-1.2653 -0.156,-0.624 -0.26,-1.1093 -0.12133,-0.572 -0.208,-1.0573 h -0.0347 q -0.13867,0.64133 -0.27734,1.248 -0.13866,0.52 -0.29466,1.1267 -0.13867,0.58933 -0.29467,1.0573 z"
         id="path46"
         inkscape:connector-curvature="0"
         style="fill:#ffffff;fill-opacity:1" />
      <path
         d="m 161.36,11.623 h 0.052 q 0.45066,-0.97067 1.0747,-1.3867 0.624,-0.416 1.4907,-0.416 0.416,0 0.572,0.069333 v 2.3747 h -0.0693 q -0.29467,-0.052 -0.572,-0.052 -1.1093,-0.01733 -1.7853,0.676 -0.65866,0.676 -0.65866,2.028 v 4.2813 h -2.7213 v -9.2213 h 2.6173 z"
         id="path48"
         inkscape:connector-curvature="0"
         style="fill:#ffffff;fill-opacity:1" />
      <path
         d="m 170.09,19.475 q -1.1267,0 -2.028,-0.364 -0.90134,-0.38133 -1.5427,-1.04 -0.624,-0.65867 -0.97067,-1.5427 -0.32933,-0.884 -0.32933,-1.924 0,-1.04 0.34667,-1.924 0.34666,-0.90133 0.97066,-1.56 0.624,-0.65867 1.4907,-1.0227 0.86667,-0.38133 1.924,-0.38133 0.988,0 1.768,0.312 0.79733,0.312 1.404,0.86667 0.78,0.76267 1.144,1.8893 0.364,1.1267 0.34667,2.496 h -6.7253 q 0.13867,1.04 0.69334,1.6293 0.55466,0.58933 1.5427,0.58933 0.64134,0 1.04,-0.22533 0.416,-0.24267 0.64134,-0.676 h 2.6347 q -0.17333,0.60667 -0.55466,1.144 -0.364,0.52 -0.91867,0.91867 -0.53733,0.38133 -1.2653,0.58933 -0.728,0.22533 -1.612,0.22533 z m -0.13867,-7.8347 q -0.936,0 -1.4213,0.55467 -0.48534,0.55467 -0.624,1.508 h 3.9347 q -0.0693,-0.97067 -0.572,-1.508 -0.50266,-0.55467 -1.3173,-0.55467 z"
         id="path50"
         inkscape:connector-curvature="0"
         style="fill:#ffffff;fill-opacity:1" />
      <path
         d="m 182.06,19.198 q -0.104,-0.156 -0.19067,-0.43333 -0.0867,-0.29467 -0.12133,-0.69333 h -0.0347 q -0.45067,0.64133 -1.092,1.0053 -0.624,0.364 -1.6987,0.364 -0.676,0 -1.2653,-0.19067 -0.572,-0.17333 -1.0053,-0.52 -0.416,-0.34667 -0.65867,-0.86667 -0.22533,-0.53733 -0.22533,-1.2133 0,-0.76267 0.27733,-1.2653 0.29467,-0.50267 0.78,-0.81467 0.48533,-0.312 1.144,-0.468 0.65867,-0.17333 1.4213,-0.26 1.2307,-0.17333 1.768,-0.416 0.55467,-0.24267 0.55467,-0.76267 0,-0.50267 -0.32933,-0.79733 -0.32934,-0.312 -1.04,-0.312 -0.78,0 -1.1787,0.32933 -0.38133,0.32933 -0.43333,0.884 h -2.5133 q 0.0173,-0.58933 0.27734,-1.144 0.26,-0.55467 0.76266,-0.97067 0.50267,-0.43333 1.2653,-0.676 0.76266,-0.26 1.7853,-0.26 0.884,0 1.5253,0.13867 0.64134,0.12133 1.1267,0.416 0.728,0.416 1.0573,1.1267 0.34667,0.69333 0.34667,1.6293 v 4.732 q 0,1.0573 0.34667,1.2827 v 0.156 z m -2.288,-1.5427 q 0.91866,0 1.456,-0.50267 0.55466,-0.50267 0.55466,-1.2653 v -1.196 q -0.29466,0.19067 -0.728,0.312 -0.416,0.104 -0.86666,0.208 -0.90134,0.19067 -1.3347,0.468 -0.43336,0.27733 -0.43333,0.884 3e-5,0.60667 0.39866,0.84933 0.39867,0.24267 0.95334,0.24267 z"
         id="path52"
         inkscape:connector-curvature="0"
         style="fill:#ffffff;fill-opacity:1" />
    </g>
    <g
       aria-label="Habitat for Humanity"
       id="g92"
       style="fill:#ffffff;fill-opacity:1">
      <path
         d="m 51.722,21.494 h 3.6267 v 6.1227 h 5.9947 V 21.494 h 3.6267 v 15.872 h -3.6267 v -6.72 h -5.9947 v 6.72 H 51.722 Z"
         id="path56"
         inkscape:connector-curvature="0"
         style="fill:#ffffff;fill-opacity:1" />
      <path
         d="M 74.679,37.366 Q 74.551,37.174 74.44433,36.83267 74.33766,36.47 74.295,35.97934 h -0.04267 q -0.55467,0.78933 -1.344,1.2373 -0.768,0.448 -2.0907,0.448 -0.832,0 -1.5573,-0.23467 -0.704,-0.21333 -1.2373,-0.64 -0.512,-0.42667 -0.81067,-1.0667 -0.27733,-0.66133 -0.27733,-1.4933 0,-0.93867 0.34133,-1.5573 0.36267,-0.61867 0.96,-1.0027 0.59733,-0.384 1.408,-0.576 0.81067,-0.21333 1.7493,-0.32 1.5147,-0.21333 2.176,-0.512 0.68267,-0.29867 0.68267,-0.93867 0,-0.61867 -0.40533,-0.98133 -0.40533,-0.384 -1.28,-0.384 -0.96,0 -1.4507,0.40533 -0.46933,0.40533 -0.53333,1.088 h -3.0933 q 0.02133,-0.72533 0.34133,-1.408 0.32,-0.68267 0.93867,-1.1947 0.61867,-0.53333 1.5573,-0.832 0.93867,-0.32 2.1973,-0.32 1.088,0 1.8773,0.17067 0.78933,0.14933 1.3867,0.512 0.896,0.512 1.3013,1.3867 0.42667,0.85333 0.42667,2.0053 v 5.824 q 0,1.3013 0.42667,1.5787 v 0.192 z m -2.816,-1.8987 q 1.1307,0 1.792,-0.61867 0.68267,-0.61867 0.68267,-1.5573 v -1.472 q -0.36267,0.23467 -0.896,0.384 -0.512,0.128 -1.0667,0.256 -1.1093,0.23467 -1.6427,0.576 -0.53333,0.34133 -0.53333,1.088 0,0.74667 0.49067,1.0453 0.49067,0.29867 1.1733,0.29867 z"
         id="path58"
         inkscape:connector-curvature="0"
         style="fill:#ffffff;fill-opacity:1" />
      <path
         d="m 86.499,37.729 q -1.152,0 -2.0693,-0.49067 -0.896,-0.49067 -1.3867,-1.536 h -0.04267 v 1.664 h -3.2213 v -15.872 h 3.3493 v 3.4773 q 0,0.72533 -0.04267,1.4293 -0.02133,0.68267 -0.064,1.1947 h 0.064 q 0.576,-0.87467 1.3867,-1.3867 0.81067,-0.512 2.0053,-0.512 1.1093,0 2.0053,0.448 0.896,0.448 1.536,1.2587 0.64,0.78933 0.98133,1.8987 0.36267,1.088 0.36267,2.3893 0,1.408 -0.34133,2.5387 -0.34133,1.1093 -0.98133,1.8987 -0.64,0.768 -1.536,1.1947 -0.896,0.40533 -2.0053,0.40533 z m -0.896,-2.688 q 1.1733,0 1.7493,-0.91733 0.59733,-0.91733 0.59733,-2.4533 0,-1.53597 -0.59733,-2.4747 -0.576,-0.96 -1.7707,-0.96 -0.66133,0 -1.152,0.27733 -0.46933,0.256 -0.78933,0.72533 -0.32,0.448 -0.46933,1.088 -0.14933,0.64 -0.14933,1.3653 0,1.4933 0.68267,2.432 0.68267,0.91733 1.8987,0.91733 z"
         id="path60"
         inkscape:connector-curvature="0"
         style="fill:#ffffff;fill-opacity:1" />
      <path
         d="M 93.008,21.494 H 96.4 v 2.9227 h -3.392 z m 0.02133,4.5227 h 3.3493 v 11.349 h -3.3493 z"
         id="path62"
         inkscape:connector-curvature="0"
         style="fill:#ffffff;fill-opacity:1" />
      <path
         d="m 97.701,26.017 h 1.7067 v -3.6267 h 3.2853 v 3.6267 h 2.2187 v 2.1333 h -2.2187 v 5.632 q 0,0.64 0.32,0.87467 0.34133,0.21333 0.93867,0.21333 0.17066,0 0.384,0 0.21333,-0.02133 0.384,-0.04267 h 0.17066 v 2.496 q -0.27733,0.04267 -0.768,0.10667 -0.49066,0.064 -1.1733,0.064 -0.78933,0 -1.4507,-0.128 -0.64,-0.14933 -1.1093,-0.49067 -0.46933,-0.36267 -0.72533,-0.91733 -0.256,-0.576 -0.256,-1.4507 V 28.1503 H 97.701 Z"
         id="path64"
         inkscape:connector-curvature="0"
         style="fill:#ffffff;fill-opacity:1" />
      <path
         d="M 114.14,37.366 Q 114.012,37.174 113.90533,36.83267 113.79867,36.47 113.756,35.97934 h -0.0427 q -0.55466,0.78933 -1.344,1.2373 -0.768,0.448 -2.0907,0.448 -0.832,0 -1.5573,-0.23467 -0.704,-0.21333 -1.2373,-0.64 -0.512,-0.42667 -0.81067,-1.0667 -0.27733,-0.66133 -0.27733,-1.4933 0,-0.93867 0.34133,-1.5573 0.36267,-0.61867 0.96,-1.0027 0.59734,-0.384 1.408,-0.576 0.81067,-0.21333 1.7493,-0.32 1.5147,-0.21333 2.176,-0.512 0.68266,-0.29867 0.68266,-0.93867 0,-0.61867 -0.40533,-0.98133 -0.40533,-0.384 -1.28,-0.384 -0.96,0 -1.4507,0.40533 -0.46933,0.40533 -0.53333,1.088 h -3.0933 q 0.0213,-0.72533 0.34133,-1.408 0.32,-0.68267 0.93867,-1.1947 0.61866,-0.53333 1.5573,-0.832 0.93867,-0.32 2.1973,-0.32 1.088,0 1.8773,0.17067 0.78933,0.14933 1.3867,0.512 0.896,0.512 1.3013,1.3867 0.42666,0.85333 0.42666,2.0053 v 5.824 q 0,1.3013 0.42667,1.5787 v 0.192 z m -2.816,-1.8987 q 1.1307,0 1.792,-0.61867 0.68267,-0.61867 0.68267,-1.5573 v -1.472 q -0.36267,0.23467 -0.896,0.384 -0.512,0.128 -1.0667,0.256 -1.1093,0.23467 -1.6427,0.576 -0.53333,0.34133 -0.53333,1.088 0,0.74667 0.49067,1.0453 0.49066,0.29867 1.1733,0.29867 z"
         id="path66"
         inkscape:connector-curvature="0"
         style="fill:#ffffff;fill-opacity:1" />
      <path
         d="m 118.45,26.017 h 1.7067 v -3.6267 h 3.2853 v 3.6267 h 2.2187 v 2.1333 h -2.2187 v 5.632 q 0,0.64 0.32,0.87467 0.34133,0.21333 0.93867,0.21333 0.17066,0 0.384,0 0.21333,-0.02133 0.384,-0.04267 h 0.17066 v 2.496 q -0.27733,0.04267 -0.768,0.10667 -0.49066,0.064 -1.1733,0.064 -0.78933,0 -1.4507,-0.128 -0.64,-0.14933 -1.1093,-0.49067 -0.46933,-0.36267 -0.72533,-0.91733 -0.256,-0.576 -0.256,-1.4507 V 28.1503 H 118.45 Z"
         id="path68"
         inkscape:connector-curvature="0"
         style="fill:#ffffff;fill-opacity:1" />
      <path
         d="m 131.85,26.017 h 1.7067 v -0.96 q 0,-1.792 0.96,-2.6667 0.55467,-0.49067 1.408,-0.704 0.87467,-0.21333 1.9627,-0.192 0.34133,0 0.68266,0.02133 0.34134,0.02133 0.704,0.064 v 2.3893 q -0.64,-0.02133 -1.088,0 -0.448,0.02133 -0.74666,0.17067 -0.27734,0.128 -0.40534,0.40533 -0.128,0.27733 -0.128,0.74667 v 0.72533 h 2.368 v 2.176 h -2.368 v 9.1733 h -3.3493 v -9.1733 h -1.7067 z"
         id="path70"
         inkscape:connector-curvature="0"
         style="fill:#ffffff;fill-opacity:1" />
      <path
         d="m 146.18,37.729 q -1.3653,0 -2.4747,-0.448 -1.1093,-0.46933 -1.8987,-1.28 -0.78933,-0.81067 -1.216,-1.8987 -0.42666,-1.1093 -0.42666,-2.3893 0,-1.28 0.42666,-2.368 0.42667,-1.1093 1.216,-1.92 0.78934,-0.81067 1.8987,-1.2587 1.1093,-0.46933 2.4747,-0.46933 1.344,0 2.4533,0.46933 1.1093,0.448 1.8773,1.2587 0.78934,0.81067 1.216,1.92 0.42667,1.088 0.42667,2.368 0,1.28 -0.42667,2.3893 -0.42666,1.088 -1.216,1.8987 -0.768,0.81067 -1.8773,1.28 -1.1093,0.448 -2.4533,0.448 z m -0.0213,-2.432 q 1.2587,0 1.92,-0.98133 0.68267,-1.0027 0.68267,-2.6027 0,-1.6213 -0.68267,-2.624 -0.66133,-1.0027 -1.92,-1.0027 -1.28,0 -1.9413,1.0027 -0.6613,1.0027 -0.66133,2.624 0,1.6 0.66133,2.6027 0.66133,0.98133 1.9413,0.98133 z"
         id="path72"
         inkscape:connector-curvature="0"
         style="fill:#ffffff;fill-opacity:1" />
      <path
         d="m 157.04,28.043 h 0.064 q 0.55467,-1.1947 1.3227,-1.7067 0.76803,-0.512 1.8347,-0.512 0.512,0 0.704,0.08533 v 2.9227 h -0.0853 q -0.36266,-0.064 -0.704,-0.064 -1.3653,-0.02133 -2.1973,0.832 -0.81067,0.832 -0.81067,2.496 v 5.2693 h -3.3493 v -11.349 h 3.2213 z"
         id="path74"
         inkscape:connector-curvature="0"
         style="fill:#ffffff;fill-opacity:1" />
      <path
         d="m 167.93,21.494 h 3.6267 v 6.1227 h 5.9947 V 21.494 h 3.6267 v 15.872 h -3.6267 v -6.72 h -5.9947 v 6.72 H 167.93 Z"
         id="path76"
         inkscape:connector-curvature="0"
         style="fill:#ffffff;fill-opacity:1" />
      <path
         d="m 190.99,37.366 v -1.6213 h -0.064 q -0.61867,1.0027 -1.4293,1.472 -0.81066,0.46933 -1.984,0.46933 -1.9413,0 -2.9653,-1.1307 -1.024,-1.152 -1.024,-3.0293 v -7.5093 h 3.3493 v 6.8693 q 0,0.96 0.448,1.472 0.46934,0.512 1.3653,0.512 1.024,0 1.6,-0.68267 0.576,-0.68267 0.576,-1.7493 v -6.4213 h 3.3067 v 11.349 z"
         id="path78"
         inkscape:connector-curvature="0"
         style="fill:#ffffff;fill-opacity:1" />
      <path
         d="m 196.4,26.017 h 3.2213 v 1.7707 h 0.064 q 0.55467,-1.024 1.3653,-1.5573 0.832,-0.53333 2.048,-0.53333 2.24,0 3.1147,2.1547 h 0.0427 q 0.704,-1.152 1.6,-1.6427 0.91733,-0.512 2.0053,-0.512 1.8987,0 2.8587,1.152 0.96,1.1307 0.96,3.0293 v 7.488 h -3.328 v -6.9333 q 0,-0.93867 -0.448,-1.4507 -0.42667,-0.53333 -1.2373,-0.53333 -0.896,0 -1.4293,0.68267 -0.512,0.68267 -0.512,1.7707 v 6.464 h -3.3493 v -6.9333 q 0,-0.93867 -0.42667,-1.4507 -0.40533,-0.53333 -1.2373,-0.53333 -0.896,0 -1.4293,0.68267 -0.53333,0.68267 -0.53333,1.7707 v 6.464 h -3.3493 z"
         id="path80"
         inkscape:connector-curvature="0"
         style="fill:#ffffff;fill-opacity:1" />
      <path
         d="M 223.1,37.366 Q 222.972,37.174 222.86534,36.83267 222.75867,36.47 222.716,35.97934 h -0.0427 q -0.55467,0.78933 -1.344,1.2373 -0.768,0.448 -2.0907,0.448 -0.832,0 -1.5573,-0.23467 -0.704,-0.21333 -1.2373,-0.64 -0.512,-0.42667 -0.81066,-1.0667 -0.27734,-0.66133 -0.27734,-1.4933 0,-0.93867 0.34134,-1.5573 0.36266,-0.61867 0.96,-1.0027 0.59733,-0.384 1.408,-0.576 0.81066,-0.21333 1.7493,-0.32 1.5147,-0.21333 2.176,-0.512 0.68267,-0.29867 0.68267,-0.93867 0,-0.61867 -0.40534,-0.98133 -0.40533,-0.384 -1.28,-0.384 -0.96,0 -1.4507,0.40533 -0.46934,0.40533 -0.53334,1.088 h -3.0933 q 0.0213,-0.72533 0.34133,-1.408 0.32,-0.68267 0.93867,-1.1947 0.61867,-0.53333 1.5573,-0.832 0.93867,-0.32 2.1973,-0.32 1.088,0 1.8773,0.17067 0.78933,0.14933 1.3867,0.512 0.896,0.512 1.3013,1.3867 0.42667,0.85333 0.42667,2.0053 v 5.824 q 0,1.3013 0.42666,1.5787 v 0.192 z m -2.816,-1.8987 q 1.1307,0 1.792,-0.61867 0.68267,-0.61867 0.68267,-1.5573 v -1.472 q -0.36267,0.23467 -0.896,0.384 -0.512,0.128 -1.0667,0.256 -1.1093,0.23467 -1.6427,0.576 -0.53334,0.34133 -0.53334,1.088 0,0.74667 0.49067,1.0453 0.49067,0.29867 1.1733,0.29867 z"
         id="path82"
         inkscape:connector-curvature="0"
         style="fill:#ffffff;fill-opacity:1" />
      <path
         d="m 231.44,27.745 h 0.064 q 0.53334,-1.024 1.408,-1.536 0.896,-0.512 2.0907,-0.512 1.8773,0 2.9013,1.152 1.0453,1.1307 1.0453,3.0507 v 7.4667 h -3.328 v -6.8267 q 0,-0.93867 -0.49067,-1.4933 -0.46933,-0.576 -1.408,-0.576 -0.98133,0 -1.5787,0.704 -0.59733,0.704 -0.59733,1.792 v 6.4 h -3.3493 v -11.349 h 3.2427 z"
         id="path84"
         inkscape:connector-curvature="0"
         style="fill:#ffffff;fill-opacity:1" />
      <path
         d="m 241.05,21.494 h 3.392 v 2.9227 h -3.392 z m 0.0213,4.5227 h 3.3493 v 11.349 h -3.3493 z"
         id="path86"
         inkscape:connector-curvature="0"
         style="fill:#ffffff;fill-opacity:1" />
      <path
         d="m 245.74,26.017 h 1.7067 v -3.6267 h 3.2853 v 3.6267 h 2.2187 v 2.1333 h -2.2187 v 5.632 q 0,0.64 0.32,0.87467 0.34134,0.21333 0.93867,0.21333 0.17067,0 0.384,0 0.21333,-0.02133 0.384,-0.04267 h 0.17067 v 2.496 q -0.27734,0.04267 -0.768,0.10667 -0.49067,0.064 -1.1733,0.064 -0.78933,0 -1.4507,-0.128 -0.64,-0.14933 -1.1093,-0.49067 -0.46933,-0.36267 -0.72533,-0.91733 -0.256,-0.576 -0.256,-1.4507 v -6.3573 h -1.7067 z"
         id="path88"
         inkscape:connector-curvature="0"
         style="fill:#ffffff;fill-opacity:1" />
      <path
         d="m 257.5,41.163 q -0.0427,0 -0.384,0 -0.34133,0 -0.74666,-0.02133 -0.40534,0 -0.74667,-0.02133 -0.34133,0 -0.36267,0 v -2.624 h 0.17067 q 0.0213,0 0.17067,0 0.17066,0.02133 0.36266,0.02133 0.192,0 0.34134,0 0.17066,0 0.21333,0 1.5147,0 1.6213,-1.152 0,-0.29867 -0.14933,-0.896 -0.14933,-0.61867 -0.448,-1.3867 l -3.52,-9.0667 h 3.52 l 1.4507,4.352 q 0.192,0.576 0.36266,1.28 0.17067,0.68267 0.29867,1.28 0.14933,0.704 0.27733,1.3867 h 0.0427 q 0.14933,-0.704 0.32,-1.408 0.14933,-0.59733 0.32,-1.28 0.17067,-0.68267 0.36267,-1.2587 l 1.3867,-4.352 h 3.328 l -4.0533,11.627 q -0.34133,0.98133 -0.72533,1.6427 -0.384,0.68267 -0.87467,1.088 -0.49067,0.42667 -1.1093,0.59733 -0.61867,0.192 -1.4293,0.192 z"
         id="path90"
         inkscape:connector-curvature="0"
         style="fill:#ffffff;fill-opacity:1" />
    </g>
  </g>
</svg>
